<?xml version="1.0" standalone="no"?>
<!DOCTYPE svg PUBLIC "-//W3C//DTD SVG 20010904//EN"
 "http://www.w3.org/TR/2001/REC-SVG-20010904/DTD/svg10.dtd">
<svg version="1.0" xmlns="http://www.w3.org/2000/svg"
 width="1184.000000pt" height="1184.000000pt" viewBox="0 0 1184.000000 1184.000000"
 preserveAspectRatio="xMidYMid meet">
<metadata>
Created by potrace 1.11, written by Peter Selinger 2001-2013
</metadata>
<g transform="translate(0.000000,1184.000000) scale(0.100000,-0.100000)"
fill="#000000" stroke="none">
<path d="M8774 8865 c-170 -36 -307 -132 -386 -270 -71 -124 -137 -321 -154
-462 -19 -146 -6 -377 25 -455 6 -16 9 -28 6 -28 -5 0 40 -103 70 -161 29 -55
28 -56 -70 -54 -82 1 -163 14 -171 26 -3 5 -12 9 -20 9 -18 0 -91 34 -164 76
-76 43 -144 81 -220 122 -36 19 -72 40 -80 47 -8 6 -30 17 -47 25 -18 7 -33
16 -33 21 0 5 -4 9 -9 9 -5 0 -38 16 -73 36 -148 84 -180 101 -318 170 -80 40
-181 87 -225 104 -115 46 -236 90 -262 96 -12 2 -35 9 -50 15 -16 6 -37 13
-48 15 -35 7 -58 13 -115 29 -30 8 -73 18 -94 20 -21 3 -42 7 -45 9 -6 4 -66
15 -118 21 -13 2 -40 6 -60 9 -145 22 -441 37 -480 24 -12 -4 -25 -3 -28 3 -4
5 -10 7 -15 4 -4 -3 -41 -7 -81 -10 -111 -7 -188 -15 -249 -25 -30 -5 -71 -12
-90 -15 -19 -3 -46 -8 -60 -10 -14 -3 -35 -7 -48 -10 -13 -2 -33 -7 -44 -11
-11 -3 -30 -7 -41 -9 -32 -4 -134 -31 -199 -54 -32 -11 -58 -17 -58 -14 0 3
-6 1 -12 -4 -7 -6 -38 -18 -68 -28 -30 -10 -68 -23 -85 -31 -16 -7 -59 -25
-95 -39 -187 -77 -530 -271 -614 -347 -11 -10 -25 -18 -31 -18 -6 0 -17 -9
-25 -20 -8 -11 -18 -20 -22 -20 -4 0 -16 -6 -25 -14 -206 -168 -313 -263 -367
-325 -12 -13 -35 -37 -51 -55 -46 -46 -204 -239 -219 -265 -5 -9 -12 -18 -15
-21 -15 -13 -91 -120 -91 -129 0 -5 -4 -11 -8 -13 -5 -1 -39 -48 -76 -103 -37
-55 -74 -109 -82 -120 -8 -11 -69 -101 -135 -200 -67 -99 -126 -181 -130 -183
-5 -2 -9 -8 -9 -14 0 -5 -6 -15 -13 -22 -6 -8 -19 -24 -27 -36 -59 -89 -271
-334 -349 -404 -19 -17 -41 -38 -50 -46 -9 -9 -41 -36 -71 -60 -30 -25 -56
-48 -58 -52 -2 -5 -10 -8 -17 -8 -7 0 -15 -3 -17 -8 -5 -12 -131 -91 -205
-127 -61 -30 -179 -68 -246 -80 -113 -21 -194 -27 -332 -28 -125 -1 -279 7
-327 17 -13 3 -41 7 -63 10 -22 3 -47 7 -55 10 -8 3 -31 7 -50 10 -19 3 -50
10 -67 15 -18 5 -33 8 -33 5 0 -3 -8 0 -18 5 -11 6 -30 12 -43 15 -82 16 -349
129 -349 148 0 4 -6 8 -13 8 -7 0 -31 15 -53 33 -86 74 -118 46 -88 -78 15
-61 44 -160 61 -205 3 -8 7 -19 9 -25 9 -38 138 -300 154 -315 3 -3 27 -35 53
-73 54 -78 51 -75 114 -146 87 -99 203 -199 291 -253 20 -12 39 -25 42 -28 16
-18 253 -119 287 -121 2 -1 31 -7 65 -15 82 -20 172 -27 338 -26 129 0 327 9
380 17 14 2 52 7 85 10 33 3 71 7 85 10 13 3 40 7 60 10 20 3 47 8 60 11 14 3
36 7 50 9 14 2 44 11 68 19 23 8 43 15 45 15 10 -1 78 31 312 148 346 174 551
283 625 333 50 34 217 118 300 150 158 61 209 70 281 48 45 -14 129 -81 129
-104 0 -8 4 -14 9 -14 7 0 38 -69 48 -105 47 -184 61 -295 58 -468 -3 -127 -8
-198 -22 -262 -3 -16 -7 -39 -9 -50 -2 -11 -8 -38 -14 -60 -5 -22 -12 -56 -16
-75 -3 -19 -7 -43 -10 -52 -3 -9 -7 -25 -9 -35 -2 -10 -17 -81 -35 -158 -17
-77 -33 -156 -36 -175 -3 -19 -10 -51 -15 -71 -8 -30 -19 -119 -21 -164 -1
-27 15 -94 30 -125 25 -51 100 -96 191 -115 100 -20 180 -42 251 -67 214 -75
406 -76 508 -2 56 40 81 123 61 199 -11 41 -20 101 -24 159 -2 27 -9 62 -16
78 -6 16 -10 31 -7 33 3 3 25 8 49 11 59 9 140 49 164 82 22 31 28 100 12 146
-6 17 -38 68 -72 112 -64 84 -119 199 -135 282 -14 76 -4 189 23 257 36 89 49
115 59 115 4 0 8 5 8 11 0 17 95 105 136 124 39 18 138 23 199 11 34 -7 271
-52 325 -61 127 -22 380 11 569 74 51 17 98 31 105 31 8 0 19 6 25 14 6 8 22
16 34 19 12 2 30 8 40 12 16 7 18 4 14 -26 -3 -19 -6 -34 -7 -34 -1 0 -3 -13
-5 -30 -2 -16 -7 -50 -11 -75 -4 -25 -8 -52 -9 -60 -1 -8 -5 -37 -9 -65 -3
-27 -9 -70 -12 -95 -3 -25 -8 -61 -10 -80 -3 -19 -7 -51 -9 -70 -3 -31 -7 -68
-20 -170 -3 -30 -16 -160 -20 -215 -4 -39 -16 -261 -19 -340 -6 -130 45 -207
184 -274 198 -97 447 -142 569 -102 82 26 138 91 147 173 2 24 7 49 9 56 2 6
0 12 -6 12 -6 0 -7 5 -4 11 10 16 -50 128 -93 176 -22 23 -66 64 -99 92 -78
64 -88 93 -68 191 4 19 8 44 10 55 17 99 77 336 101 395 1 3 5 16 10 30 25 80
206 362 221 346 3 -2 6 -41 9 -86 2 -46 7 -87 10 -92 3 -5 7 -23 10 -41 2 -18
6 -43 9 -57 4 -14 8 -36 11 -50 3 -14 10 -43 16 -65 6 -22 11 -44 13 -50 9
-40 21 -83 48 -170 17 -55 32 -104 33 -110 3 -16 33 -108 43 -130 5 -11 19
-49 31 -85 43 -126 112 -305 128 -330 8 -14 23 -30 31 -37 30 -22 186 -73 368
-120 15 -4 75 -7 133 -6 86 0 113 4 150 21 148 70 193 214 114 367 -29 56
-115 145 -166 171 -18 9 -35 20 -38 23 -3 3 -23 18 -45 33 -22 15 -52 43 -67
62 -45 57 -103 196 -123 297 -11 53 -26 225 -29 333 -4 136 7 205 40 262 36
62 286 286 362 325 15 8 29 16 32 20 9 9 113 51 145 58 16 3 64 6 105 6 117
-1 184 -38 314 -174 202 -210 253 -249 375 -285 76 -22 265 -16 385 13 l90 22
54 -53 c86 -83 86 -84 148 -125 103 -69 293 -143 330 -129 7 3 16 1 19 -4 9
-14 199 -4 270 14 98 24 199 70 241 108 37 33 12 88 -40 88 -34 0 -108 31
-132 54 -8 9 -21 19 -28 23 -26 15 -106 158 -106 190 0 2 17 -5 39 -16 21 -11
49 -22 62 -25 13 -2 31 -7 39 -10 8 -3 31 -7 50 -10 82 -13 164 -38 190 -59
42 -33 71 -98 83 -187 7 -47 25 -77 58 -92 82 -40 177 30 226 167 13 38 17 81
18 180 0 161 -12 201 -130 440 -103 210 -129 273 -145 359 -17 90 0 253 29
270 10 6 2 64 -10 72 -5 3 -44 7 -87 9 -42 2 -93 6 -112 9 -19 3 -51 8 -70 10
-19 3 -60 9 -90 15 -30 6 -66 12 -80 15 -69 12 -207 76 -238 109 -42 45 -68
126 -65 201 3 74 35 187 59 206 8 7 14 17 14 23 0 23 131 136 226 194 141 87
346 185 415 198 9 2 37 10 61 19 25 8 63 17 84 20 21 4 77 13 124 20 58 10
138 14 250 11 150 -3 191 -6 256 -20 59 -13 74 65 18 97 -41 24 -144 61 -235
84 -59 15 -108 19 -244 18 -154 0 -296 -8 -365 -18 -14 -3 -50 -7 -81 -11 -31
-3 -65 -7 -75 -9 -11 -2 -39 -7 -64 -10 -25 -3 -56 -8 -70 -11 -25 -5 -123
-23 -170 -31 -14 -3 -41 -9 -60 -14 -19 -5 -46 -11 -60 -14 -14 -2 -47 -10
-75 -16 -27 -7 -57 -13 -65 -15 -8 -2 -15 -4 -15 -5 0 -1 -7 -3 -15 -5 -8 -2
-59 -17 -113 -33 -215 -66 -331 -11 -404 192 -16 44 -17 48 -34 116 -18 76
-35 156 -45 220 -3 19 -8 38 -10 41 -9 16 -26 152 -39 319 -14 184 -23 281
-30 325 -13 76 -15 90 -15 95 1 20 -73 209 -87 223 -4 5 -8 12 -8 15 0 13 -60
87 -108 134 -57 55 -166 112 -253 132 -77 17 -211 18 -290 1z"/>
</g>
</svg>
