<svg width="74" height="37" viewBox="0 0 74 37" fill="none" xmlns="http://www.w3.org/2000/svg">
<g clip-path="url(#clip0)">
<mask id="path-1-inside-1" fill="white">
<path d="M73.8661 10.8944C72.7211 10.3253 71.4952 10.0905 70.2739 10.2063C68.8406 10.2735 67.4113 10.4455 65.9927 10.7214C65.272 10.8581 64.5546 11.0195 63.8405 11.2056C63.1165 11.3942 62.4463 11.7853 61.7176 11.5436C60.5179 11.1485 60.3914 9.50269 60.0602 8.04992C59.4875 5.54839 60.12 2.86404 58.3388 1.01442C56.8008 -0.583267 53.6078 -0.24304 52.4795 1.6757C51.2597 3.74916 50.8785 6.91286 52.2734 8.99168C50.7796 9.25343 49.9359 8.60686 48.5397 7.83857C46.8265 6.89592 45.1637 5.85385 43.3934 5.09536C38.6007 3.05938 33.4525 2.95452 28.6139 4.79436C26.1855 5.71536 23.8882 7.15063 21.8129 9.04342C17.6486 12.8671 15.9555 18.6964 11.1354 21.3304C8.55099 22.7412 2.68074 22.1468 0.348003 20.1233C0.307999 20.0949 0.262574 20.0824 0.217239 20.0872C0.171904 20.092 0.128608 20.114 0.0926048 20.1504C0.0566019 20.1869 0.0294399 20.2362 0.0144139 20.2925C-0.000612162 20.3488 -0.00285625 20.4096 0.00795455 20.4675C0.920985 24.7737 3.91851 27.8116 7.18944 28.303C8.83255 28.55 13.2131 28.3302 14.7477 27.5254C16.7472 26.477 18.3747 25.7524 20.149 24.6591C21.0102 24.1416 21.9118 23.7484 22.8378 23.4863C23.2235 23.3749 23.6268 23.4438 23.9779 23.681C24.3291 23.9181 24.606 24.3087 24.7608 24.7853C25.2064 26.3184 25.2926 27.9912 25.0083 29.589C24.5431 31.6937 24.0188 33.9718 23.9929 34.5172C23.8991 36.4876 25.482 36.0043 27.1846 36.7168C28.0541 37.0802 31.1013 37.4914 30.4491 35.1825C30.3233 34.7366 30.3998 33.9883 30.1179 33.6958C31.0234 33.6338 31.8892 33.3079 31.6423 32.3206C31.5403 31.9126 31.238 31.6683 31.0265 31.3682C30.6515 30.866 30.3907 30.2365 30.2736 29.5507C30.0869 28.0881 31.1918 26.4784 32.2323 26.4739C33.4534 26.4681 34.6885 27.0277 35.9599 26.9475C37.3256 26.8608 38.6738 26.5073 39.9599 25.8987C39.7433 27.0255 39.6056 28.192 39.4709 29.3286C39.2788 30.8161 39.1527 32.3171 39.0931 33.8238C39.0591 34.9831 39.663 35.2922 40.4166 35.6431C41.3313 36.0694 44.623 37.1908 44.7604 34.9162C44.8155 34.0021 43.8235 33.1571 43.2866 32.7692C43.19 32.6996 43.1134 32.5904 43.0686 32.4584C43.0237 32.3263 43.013 32.1787 43.038 32.0379C43.2081 31.0654 43.6239 28.9612 44.15 28.105C44.4777 27.5314 44.8435 26.9971 45.2432 26.5082C45.2514 28.7449 46.8272 32.9155 47.3689 34.2831C47.4245 34.4248 47.5021 34.5496 47.5969 34.6495C47.6916 34.7493 47.8012 34.822 47.9187 34.8627C48.4492 35.046 49.4425 35.3724 50.1692 35.5129C50.8673 35.6467 51.9626 35.5891 52.4849 34.7843C53.0786 33.8697 52.3948 32.7197 51.7654 32.2564C51.2774 31.8975 50.751 31.6986 50.364 31.1359C49.9405 30.4307 49.6822 29.5795 49.6203 28.6856C49.5665 28.2155 49.5378 27.7411 49.5343 27.2658C49.4807 26.8046 49.527 26.3329 49.6679 25.9045C49.8846 25.5225 50.1582 25.2024 50.4722 24.9636C51.5008 23.9764 52.6787 23.0016 54.0087 23.1354C55.4396 23.2781 56.1738 25.0506 57.4119 25.7399C58.5854 26.3936 59.8942 26.1109 61.1062 25.7993C61.9939 26.8388 63.0967 27.5098 64.2752 27.7276C65.4537 27.9454 66.655 27.7001 67.7272 27.0228C67.77 26.9879 67.8031 26.9359 67.8216 26.8744C67.8401 26.813 67.8429 26.7453 67.8298 26.6815C67.8166 26.6178 67.7881 26.5613 67.7485 26.5204C67.7089 26.4795 67.6603 26.4565 67.6099 26.4547C67.2058 26.453 66.8125 26.2827 66.487 25.9685C66.1615 25.6542 65.9208 25.2124 65.7995 24.7068C66.3609 25.1612 67.1536 25.0974 67.8157 25.3475C67.9989 25.3839 68.1715 25.4833 68.3157 25.6358C68.46 25.7883 68.5708 25.9882 68.6369 26.2153C68.7049 26.5332 68.6603 26.8436 68.8491 27.1071C68.9943 27.2643 69.1756 27.3526 69.3639 27.3578C69.5521 27.3629 69.7361 27.2847 69.8862 27.1356C70.7326 26.4507 70.7734 24.8847 70.4351 23.7962C69.9229 22.1499 68.1639 20.3052 69.0609 18.382C69.0808 18.3356 69.0912 18.2832 69.091 18.2299C69.0908 18.1766 69.0801 18.1243 69.0599 18.0781C69.0397 18.0319 69.0106 17.9934 68.9756 17.9663C68.9407 17.9392 68.9009 17.9245 68.8603 17.9236C68.1252 17.91 67.3919 17.8267 66.666 17.6744C66.063 17.5951 65.4739 17.3882 64.9215 17.0617C64.2118 16.5569 64.1877 15.3227 64.6709 14.4447C65.0575 13.7428 65.7227 13.3268 66.3014 12.9611C68.6117 11.5119 71.1984 10.9957 73.7328 11.4781C73.7899 11.4933 73.8493 11.48 73.8992 11.4408C73.9492 11.4015 73.9862 11.3392 74.0029 11.2661C74.0196 11.1929 74.0148 11.1142 73.9895 11.0454C73.9642 10.9767 73.9202 10.9228 73.8661 10.8944Z"/>
</mask>
<path d="M73.8661 10.8944C72.7211 10.3253 71.4952 10.0905 70.2739 10.2063C68.8406 10.2735 67.4113 10.4455 65.9927 10.7214C65.272 10.8581 64.5546 11.0195 63.8405 11.2056C63.1165 11.3942 62.4463 11.7853 61.7176 11.5436C60.5179 11.1485 60.3914 9.50269 60.0602 8.04992C59.4875 5.54839 60.12 2.86404 58.3388 1.01442C56.8008 -0.583267 53.6078 -0.24304 52.4795 1.6757C51.2597 3.74916 50.8785 6.91286 52.2734 8.99168C50.7796 9.25343 49.9359 8.60686 48.5397 7.83857C46.8265 6.89592 45.1637 5.85385 43.3934 5.09536C38.6007 3.05938 33.4525 2.95452 28.6139 4.79436C26.1855 5.71536 23.8882 7.15063 21.8129 9.04342C17.6486 12.8671 15.9555 18.6964 11.1354 21.3304C8.55099 22.7412 2.68074 22.1468 0.348003 20.1233C0.307999 20.0949 0.262574 20.0824 0.217239 20.0872C0.171904 20.092 0.128608 20.114 0.0926048 20.1504C0.0566019 20.1869 0.0294399 20.2362 0.0144139 20.2925C-0.000612162 20.3488 -0.00285625 20.4096 0.00795455 20.4675C0.920985 24.7737 3.91851 27.8116 7.18944 28.303C8.83255 28.55 13.2131 28.3302 14.7477 27.5254C16.7472 26.477 18.3747 25.7524 20.149 24.6591C21.0102 24.1416 21.9118 23.7484 22.8378 23.4863C23.2235 23.3749 23.6268 23.4438 23.9779 23.681C24.3291 23.9181 24.606 24.3087 24.7608 24.7853C25.2064 26.3184 25.2926 27.9912 25.0083 29.589C24.5431 31.6937 24.0188 33.9718 23.9929 34.5172C23.8991 36.4876 25.482 36.0043 27.1846 36.7168C28.0541 37.0802 31.1013 37.4914 30.4491 35.1825C30.3233 34.7366 30.3998 33.9883 30.1179 33.6958C31.0234 33.6338 31.8892 33.3079 31.6423 32.3206C31.5403 31.9126 31.238 31.6683 31.0265 31.3682C30.6515 30.866 30.3907 30.2365 30.2736 29.5507C30.0869 28.0881 31.1918 26.4784 32.2323 26.4739C33.4534 26.4681 34.6885 27.0277 35.9599 26.9475C37.3256 26.8608 38.6738 26.5073 39.9599 25.8987C39.7433 27.0255 39.6056 28.192 39.4709 29.3286C39.2788 30.8161 39.1527 32.3171 39.0931 33.8238C39.0591 34.9831 39.663 35.2922 40.4166 35.6431C41.3313 36.0694 44.623 37.1908 44.7604 34.9162C44.8155 34.0021 43.8235 33.1571 43.2866 32.7692C43.19 32.6996 43.1134 32.5904 43.0686 32.4584C43.0237 32.3263 43.013 32.1787 43.038 32.0379C43.2081 31.0654 43.6239 28.9612 44.15 28.105C44.4777 27.5314 44.8435 26.9971 45.2432 26.5082C45.2514 28.7449 46.8272 32.9155 47.3689 34.2831C47.4245 34.4248 47.5021 34.5496 47.5969 34.6495C47.6916 34.7493 47.8012 34.822 47.9187 34.8627C48.4492 35.046 49.4425 35.3724 50.1692 35.5129C50.8673 35.6467 51.9626 35.5891 52.4849 34.7843C53.0786 33.8697 52.3948 32.7197 51.7654 32.2564C51.2774 31.8975 50.751 31.6986 50.364 31.1359C49.9405 30.4307 49.6822 29.5795 49.6203 28.6856C49.5665 28.2155 49.5378 27.7411 49.5343 27.2658C49.4807 26.8046 49.527 26.3329 49.6679 25.9045C49.8846 25.5225 50.1582 25.2024 50.4722 24.9636C51.5008 23.9764 52.6787 23.0016 54.0087 23.1354C55.4396 23.2781 56.1738 25.0506 57.4119 25.7399C58.5854 26.3936 59.8942 26.1109 61.1062 25.7993C61.9939 26.8388 63.0967 27.5098 64.2752 27.7276C65.4537 27.9454 66.655 27.7001 67.7272 27.0228C67.77 26.9879 67.8031 26.9359 67.8216 26.8744C67.8401 26.813 67.8429 26.7453 67.8298 26.6815C67.8166 26.6178 67.7881 26.5613 67.7485 26.5204C67.7089 26.4795 67.6603 26.4565 67.6099 26.4547C67.2058 26.453 66.8125 26.2827 66.487 25.9685C66.1615 25.6542 65.9208 25.2124 65.7995 24.7068C66.3609 25.1612 67.1536 25.0974 67.8157 25.3475C67.9989 25.3839 68.1715 25.4833 68.3157 25.6358C68.46 25.7883 68.5708 25.9882 68.6369 26.2153C68.7049 26.5332 68.6603 26.8436 68.8491 27.1071C68.9943 27.2643 69.1756 27.3526 69.3639 27.3578C69.5521 27.3629 69.7361 27.2847 69.8862 27.1356C70.7326 26.4507 70.7734 24.8847 70.4351 23.7962C69.9229 22.1499 68.1639 20.3052 69.0609 18.382C69.0808 18.3356 69.0912 18.2832 69.091 18.2299C69.0908 18.1766 69.0801 18.1243 69.0599 18.0781C69.0397 18.0319 69.0106 17.9934 68.9756 17.9663C68.9407 17.9392 68.9009 17.9245 68.8603 17.9236C68.1252 17.91 67.3919 17.8267 66.666 17.6744C66.063 17.5951 65.4739 17.3882 64.9215 17.0617C64.2118 16.5569 64.1877 15.3227 64.6709 14.4447C65.0575 13.7428 65.7227 13.3268 66.3014 12.9611C68.6117 11.5119 71.1984 10.9957 73.7328 11.4781C73.7899 11.4933 73.8493 11.48 73.8992 11.4408C73.9492 11.4015 73.9862 11.3392 74.0029 11.2661C74.0196 11.1929 74.0148 11.1142 73.9895 11.0454C73.9642 10.9767 73.9202 10.9228 73.8661 10.8944Z" fill="#7BB29E"/>
<path d="M73.8661 10.8944L74.3312 10.0091L74.3213 10.0039L74.3112 9.99888L73.8661 10.8944ZM70.2739 10.2063L70.3207 11.2052L70.3446 11.2041L70.3683 11.2019L70.2739 10.2063ZM65.9927 10.7214L66.1791 11.7038L66.1836 11.703L65.9927 10.7214ZM63.8405 11.2056L64.0926 12.1733L64.0927 12.1733L63.8405 11.2056ZM61.7176 11.5436L62.0324 10.5944L62.0304 10.5938L61.7176 11.5436ZM60.0602 8.04992L61.0352 7.82764L61.035 7.82678L60.0602 8.04992ZM58.3388 1.01442L57.6184 1.70795L57.6185 1.70807L58.3388 1.01442ZM52.4795 1.6757L53.3414 2.18274L53.3415 2.18259L52.4795 1.6757ZM52.2734 8.99168L52.446 9.97667L53.9605 9.7113L53.1038 8.43449L52.2734 8.99168ZM48.5397 7.83857L49.0218 6.96245L49.0218 6.96244L48.5397 7.83857ZM43.3934 5.09536L43.7872 4.17617L43.7844 4.17496L43.3934 5.09536ZM28.6139 4.79436L28.9685 5.72938L28.9693 5.72907L28.6139 4.79436ZM21.8129 9.04342L21.139 8.30456L21.1365 8.30683L21.8129 9.04342ZM11.1354 21.3304L11.6145 22.2081L11.6149 22.2079L11.1354 21.3304ZM0.348003 20.1233L1.00327 19.3679L0.966411 19.3359L0.926615 19.3077L0.348003 20.1233ZM0.00795455 20.4675L-0.975076 20.651L-0.972833 20.663L-0.970298 20.675L0.00795455 20.4675ZM7.18944 28.303L7.33811 27.3141L7.338 27.3141L7.18944 28.303ZM14.7477 27.5254L14.2833 26.6397L14.2832 26.6398L14.7477 27.5254ZM20.149 24.6591L19.6339 23.8019L19.6244 23.8077L20.149 24.6591ZM22.8378 23.4863L23.1101 24.4486L23.1152 24.4471L22.8378 23.4863ZM24.7608 24.7853L25.721 24.5061L25.7167 24.4911L25.7118 24.4763L24.7608 24.7853ZM25.0083 29.589L25.9848 29.8048L25.9892 29.7846L25.9929 29.7642L25.0083 29.589ZM23.9929 34.5172L24.9918 34.5647L24.9918 34.5645L23.9929 34.5172ZM27.1846 36.7168L26.7986 37.6393L26.799 37.6395L27.1846 36.7168ZM30.4491 35.1825L29.4867 35.454L29.4868 35.4543L30.4491 35.1825ZM30.1179 33.6958L30.0496 32.6981L27.9088 32.8447L29.3978 34.3897L30.1179 33.6958ZM31.6423 32.3206L30.6722 32.5632L30.6722 32.5632L31.6423 32.3206ZM31.0265 31.3682L31.8439 30.7921L31.836 30.7808L31.8277 30.7698L31.0265 31.3682ZM30.2736 29.5507L29.2817 29.6773L29.2843 29.6982L29.2879 29.719L30.2736 29.5507ZM32.2323 26.4739L32.2366 27.4739L32.2371 27.4739L32.2323 26.4739ZM35.9599 26.9475L36.0229 27.9455L36.0232 27.9454L35.9599 26.9475ZM39.9599 25.8987L40.9419 26.0875L41.3141 24.1515L39.5321 24.9948L39.9599 25.8987ZM39.4709 29.3286L40.4627 29.4567L40.464 29.4462L39.4709 29.3286ZM39.0931 33.8238L38.0939 33.7843L38.0936 33.7945L39.0931 33.8238ZM40.4166 35.6431L40.839 34.7367L40.8388 34.7366L40.4166 35.6431ZM44.7604 34.9162L45.7586 34.9765L45.7586 34.9764L44.7604 34.9162ZM43.2866 32.7692L43.8722 31.9586L43.8715 31.9581L43.2866 32.7692ZM43.038 32.0379L44.0225 32.2132L44.0231 32.2101L43.038 32.0379ZM44.15 28.105L45.002 28.6285L45.0104 28.6149L45.0183 28.6011L44.15 28.105ZM45.2432 26.5082L46.2432 26.5046L46.2331 23.718L44.4691 25.8752L45.2432 26.5082ZM47.3689 34.2831L48.2999 33.9179L48.2986 33.9148L47.3689 34.2831ZM47.9187 34.8627L47.5911 35.8075L47.5922 35.8079L47.9187 34.8627ZM50.1692 35.5129L49.9794 36.4947L49.981 36.495L50.1692 35.5129ZM52.4849 34.7843L51.6462 34.2398L51.6461 34.2399L52.4849 34.7843ZM51.7654 32.2564L52.3582 31.4511L52.3579 31.4509L51.7654 32.2564ZM50.364 31.1359L49.5068 31.6507L49.5226 31.6771L49.5401 31.7025L50.364 31.1359ZM49.6203 28.6856L50.618 28.6166L50.6164 28.5942L50.6139 28.5718L49.6203 28.6856ZM49.5343 27.2658L50.5343 27.2586L50.5339 27.2042L50.5276 27.1503L49.5343 27.2658ZM49.6679 25.9045L48.7981 25.4112L48.7491 25.4975L48.7181 25.5919L49.6679 25.9045ZM50.4722 24.9636L51.0775 25.7596L51.1232 25.7248L51.1646 25.6851L50.4722 24.9636ZM54.0087 23.1354L53.9086 24.1304L53.9094 24.1305L54.0087 23.1354ZM57.4119 25.7399L57.8985 24.8663L57.8983 24.8662L57.4119 25.7399ZM61.1062 25.7993L61.8666 25.1498L61.4614 24.6754L60.8571 24.8308L61.1062 25.7993ZM67.7272 27.0228L68.2613 27.8683L68.3122 27.8361L68.3588 27.7981L67.7272 27.0228ZM67.6099 26.4547L67.6453 25.4554L67.6297 25.4548L67.6142 25.4547L67.6099 26.4547ZM65.7995 24.7068L66.4286 23.9295L64.1406 22.0777L64.8271 24.94L65.7995 24.7068ZM67.8157 25.3475L67.4622 26.283L67.5398 26.3123L67.6212 26.3285L67.8157 25.3475ZM68.6369 26.2153L69.6148 26.0061L69.6072 25.9707L69.5971 25.936L68.6369 26.2153ZM68.8491 27.1071L68.036 27.6893L68.0723 27.7399L68.1145 27.7856L68.8491 27.1071ZM69.8862 27.1356L69.2572 26.3583L69.2176 26.3902L69.1816 26.4261L69.8862 27.1356ZM70.4351 23.7962L71.39 23.4994L71.3899 23.4992L70.4351 23.7962ZM69.0609 18.382L69.9672 18.8048L69.9738 18.7905L69.98 18.776L69.0609 18.382ZM68.8603 17.9236L68.8821 16.9239L68.8788 16.9238L68.8603 17.9236ZM66.666 17.6744L66.8713 16.6957L66.8341 16.6879L66.7963 16.6829L66.666 17.6744ZM64.9215 17.0617L64.3419 17.8766L64.3763 17.9011L64.4127 17.9226L64.9215 17.0617ZM64.6709 14.4447L63.795 13.9622L63.7948 13.9625L64.6709 14.4447ZM66.3014 12.9611L65.77 12.114L65.7673 12.1157L66.3014 12.9611ZM73.7328 11.4781L73.9908 10.5119L73.9556 10.5025L73.9198 10.4957L73.7328 11.4781ZM74.3112 9.99888C73.0066 9.35046 71.5945 9.07655 70.1794 9.2108L70.3683 11.2019C71.3959 11.1044 72.4356 11.3001 73.4211 11.7899L74.3112 9.99888ZM70.227 9.20743C68.745 9.2769 67.2676 9.45469 65.8018 9.73975L66.1836 11.703C67.555 11.4363 68.9362 11.2701 70.3207 11.2052L70.227 9.20743ZM65.8062 9.73889C65.0634 9.87985 64.324 10.0462 63.5883 10.2379L64.0927 12.1733C64.7852 11.9928 65.4806 11.8364 66.1791 11.7038L65.8062 9.73889ZM63.5884 10.2379C63.3677 10.2954 63.1572 10.3667 62.9861 10.4245C62.8032 10.4862 62.6628 10.5333 62.5283 10.5684C62.2702 10.6357 62.1378 10.6294 62.0324 10.5945L61.4028 12.4928C62.0261 12.6995 62.5931 12.6185 63.0334 12.5036C63.248 12.4475 63.4565 12.3766 63.6256 12.3195C63.8065 12.2584 63.9513 12.2101 64.0926 12.1733L63.5884 10.2379ZM62.0304 10.5938C61.8746 10.5425 61.6938 10.4012 61.5079 9.8655C61.308 9.28955 61.227 8.66909 61.0352 7.82764L59.0852 8.27221C59.2246 8.88352 59.3724 9.81237 59.6185 10.5213C59.8785 11.2705 60.3609 12.1497 61.4048 12.4934L62.0304 10.5938ZM61.035 7.82678C60.9085 7.27416 60.845 6.69571 60.7971 6.07804C60.7512 5.48685 60.7169 4.80491 60.6465 4.17638C60.5019 2.88591 60.1791 1.48376 59.0592 0.320763L57.6185 1.70807C58.2798 2.39469 58.5313 3.25953 58.6589 4.39903C58.7246 4.98548 58.7509 5.55927 58.8031 6.23275C58.8533 6.87976 58.9256 7.57492 59.0854 8.27307L61.035 7.82678ZM59.0593 0.320885C58.0254 -0.753073 56.5066 -1.11812 55.1455 -0.967537C53.7841 -0.816912 52.3797 -0.12752 51.6175 1.16881L53.3415 2.18259C53.7075 1.56018 54.4638 1.12009 55.3655 1.02033C56.2675 0.920538 57.1143 1.18422 57.6184 1.70795L59.0593 0.320885ZM51.6175 1.16866C50.9245 2.34682 50.4796 3.81148 50.3975 5.27573C50.3156 6.73741 50.5923 8.281 51.443 9.54887L53.1038 8.43449C52.5596 7.62354 52.3295 6.54588 52.3944 5.38763C52.4591 4.23196 52.8147 3.07804 53.3414 2.18274L51.6175 1.16866ZM52.1008 8.00669C51.0344 8.19354 50.5536 7.80538 49.0218 6.96245L48.0576 8.71468C49.3182 9.40835 50.5247 10.3133 52.446 9.97667L52.1008 8.00669ZM49.0218 6.96244C47.3764 6.0571 45.6175 4.96037 43.7872 4.17617L42.9995 6.01454C44.7098 6.74732 46.2766 7.73474 48.0576 8.71469L49.0218 6.96244ZM43.7844 4.17496C38.7556 2.0387 33.34 1.92745 28.2584 3.85965L28.9693 5.72907C33.565 3.9816 38.4457 4.08005 43.0024 6.01575L43.7844 4.17496ZM28.2592 3.85935C25.7037 4.82856 23.2998 6.33383 21.139 8.30457L22.4868 9.78227C24.4766 7.96744 26.6672 6.60216 28.9685 5.72938L28.2592 3.85935ZM21.1365 8.30683C18.9455 10.3186 17.3969 12.8686 15.8943 15.0691C14.3551 17.3232 12.8399 19.2594 10.6558 20.4528L11.6149 22.2079C14.251 20.7674 15.9925 18.4719 17.5459 16.1969C19.136 13.8684 20.516 11.5918 22.4892 9.78L21.1365 8.30683ZM10.6562 20.4526C9.62827 21.0138 7.75874 21.2372 5.75484 21.0205C3.7541 20.8042 1.94392 20.1839 1.00327 19.3679L-0.307265 20.8787C1.08482 22.0863 3.37613 22.7749 5.5398 23.0089C7.7003 23.2426 10.0581 23.0578 11.6145 22.2081L10.6562 20.4526ZM0.926615 19.3077C0.704322 19.15 0.418498 19.0602 0.111701 19.0928L0.322777 21.0816C0.106649 21.1045 -0.0883243 21.0398 -0.230609 20.9389L0.926615 19.3077ZM0.111701 19.0928C-0.191669 19.125 -0.441898 19.2685 -0.61882 19.4476L0.804029 20.8532C0.699113 20.9594 0.535476 21.059 0.322777 21.0816L0.111701 19.0928ZM-0.61882 19.4476C-0.792894 19.6239 -0.898153 19.8338 -0.95176 20.0346L0.980587 20.5504C0.957033 20.6386 0.906097 20.7498 0.804029 20.8532L-0.61882 19.4476ZM-0.95176 20.0346C-1.00568 20.2366 -1.01291 20.4483 -0.975076 20.651L0.990985 20.2841C1.00719 20.371 1.00446 20.461 0.980587 20.5504L-0.95176 20.0346ZM-0.970298 20.675C0.00713929 25.2848 3.2612 28.7241 7.04088 29.2919L7.338 27.3141C4.57582 26.8991 1.83483 24.2625 0.986207 20.2601L-0.970298 20.675ZM7.04076 29.2919C7.97437 29.4323 9.5691 29.4325 11.0925 29.3052C11.8648 29.2406 12.6467 29.1412 13.3457 29.0019C14.0265 28.8663 14.7002 28.6794 15.2122 28.4109L14.2832 26.6398C14.0279 26.7737 13.5785 26.9162 12.955 27.0404C12.3497 27.161 11.646 27.252 10.926 27.3121C9.46469 27.4342 8.04762 27.4208 7.33811 27.3141L7.04076 29.2919ZM15.212 28.411C17.1437 27.3983 18.8617 26.6269 20.6736 25.5104L19.6244 23.8077C17.8876 24.8779 16.3507 25.5558 14.2833 26.6397L15.212 28.411ZM20.6641 25.5162C21.4527 25.0423 22.273 24.6854 23.1101 24.4485L22.5655 22.5241C21.5506 22.8113 20.5677 23.2408 19.634 23.8019L20.6641 25.5162ZM23.1152 24.4471C23.1985 24.423 23.2972 24.4279 23.4182 24.5096L24.5377 22.8523C23.9565 22.4597 23.2485 22.3269 22.5603 22.5256L23.1152 24.4471ZM23.4182 24.5096C23.5524 24.6003 23.7107 24.7896 23.8097 25.0942L25.7118 24.4763C25.5012 23.8279 25.1057 23.236 24.5377 22.8523L23.4182 24.5096ZM23.8005 25.0644C24.2025 26.4475 24.2816 27.9647 24.0238 29.4138L25.9929 29.7642C26.3036 28.0176 26.2103 26.1893 25.721 24.5061L23.8005 25.0644ZM24.0319 29.3732C23.8008 30.4185 23.5514 31.5237 23.3579 32.4289C23.1746 33.2871 23.0119 34.0941 22.9941 34.4698L24.9918 34.5645C24.9999 34.3949 25.1122 33.7901 25.3138 32.8468C25.5053 31.9504 25.7506 30.8641 25.9848 29.8048L24.0319 29.3732ZM22.9941 34.4696C22.9648 35.0833 23.0576 35.6618 23.3803 36.1463C23.7075 36.6374 24.1729 36.8846 24.5768 37.0298C24.9531 37.165 25.401 37.2512 25.7379 37.3259C26.1107 37.4085 26.4579 37.4967 26.7986 37.6393L27.5707 35.7943C27.0601 35.5806 26.5709 35.462 26.1709 35.3733C25.7351 35.2767 25.4739 35.2269 25.2534 35.1477C25.1569 35.113 25.1038 35.0839 25.0755 35.0646C25.0516 35.0484 25.0466 35.0401 25.0449 35.0376C25.044 35.0363 24.9741 34.9362 24.9918 34.5647L22.9941 34.4696ZM26.799 37.6395C27.1187 37.7731 27.5621 37.8845 28.0198 37.9461C28.4808 38.0082 29.0334 38.0305 29.5627 37.9363C30.076 37.8449 30.716 37.6156 31.1403 37.0422C31.5917 36.4322 31.6269 35.6734 31.4114 34.9106L29.4868 35.4543C29.5974 35.846 29.4963 35.9016 29.5326 35.8525C29.5418 35.84 29.4879 35.9182 29.2123 35.9672C28.9526 36.0134 28.6212 36.0091 28.2867 35.964C27.9488 35.9185 27.6853 35.8422 27.5703 35.7942L26.799 37.6395ZM31.4115 34.9109C31.4037 34.8832 31.3917 34.8212 31.3781 34.6952C31.3739 34.6569 31.3455 34.3556 31.3356 34.2684C31.3178 34.1121 31.2895 33.9101 31.231 33.7092C31.1742 33.5142 31.0665 33.2391 30.8379 33.0019L29.3978 34.3897C29.3102 34.2988 29.2987 34.2268 29.3108 34.2684C29.3211 34.304 29.3344 34.3718 29.3485 34.4948C29.3551 34.5534 29.361 34.6151 29.3677 34.6863C29.374 34.7543 29.3813 34.8333 29.3898 34.9112C29.4059 35.06 29.4316 35.2588 29.4867 35.454L31.4115 34.9109ZM30.1862 34.6935C30.6929 34.6588 31.3637 34.546 31.8921 34.1699C32.177 33.9672 32.4365 33.6756 32.5778 33.2784C32.7181 32.8841 32.711 32.4722 32.6124 32.078L30.6722 32.5632C30.6971 32.6627 30.6744 32.6618 30.6935 32.6081C30.7135 32.5517 30.7463 32.5306 30.7324 32.5405C30.7097 32.5566 30.6448 32.5927 30.5146 32.6275C30.3881 32.6614 30.2307 32.6857 30.0496 32.6981L30.1862 34.6935ZM32.6125 32.0781C32.5146 31.6868 32.3243 31.3978 32.1689 31.1953C32.0954 31.0994 32.0162 31.0064 31.9653 30.9454C31.907 30.8756 31.8713 30.831 31.8439 30.7921L30.2091 31.9443C30.2874 32.0554 30.3688 32.1539 30.43 32.2271C30.4984 32.3091 30.5408 32.3588 30.582 32.4126C30.6562 32.5093 30.668 32.5465 30.6722 32.5632L32.6125 32.0781ZM31.8277 30.7698C31.5574 30.4078 31.3528 29.9297 31.2594 29.3824L29.2879 29.719C29.4287 30.5434 29.7456 31.3242 30.2253 31.9665L31.8277 30.7698ZM31.2656 29.424C31.2076 28.97 31.3522 28.4373 31.6298 28.0126C31.9358 27.5445 32.2096 27.474 32.2366 27.4739L32.228 25.4739C31.2145 25.4783 30.4156 26.2149 29.9557 26.9183C29.4675 27.6653 29.153 28.6688 29.2817 29.6773L31.2656 29.424ZM32.2371 27.4739C32.7188 27.4716 33.2159 27.5807 33.8734 27.7176C34.4865 27.8453 35.2358 27.9952 36.0229 27.9455L35.8969 25.9494C35.4126 25.98 34.9086 25.8902 34.2811 25.7596C33.6979 25.6382 32.9669 25.4704 32.2276 25.4739L32.2371 27.4739ZM36.0232 27.9454C37.5203 27.8505 38.9918 27.4632 40.3877 26.8026L39.5321 24.9948C38.3558 25.5515 37.131 25.8712 35.8966 25.9495L36.0232 27.9454ZM38.9779 25.7099C38.7533 26.8782 38.6117 28.0811 38.4779 29.2109L40.464 29.4462C40.5994 28.3028 40.7333 27.1727 40.9419 26.0875L38.9779 25.7099ZM38.4792 29.2005C38.2832 30.7176 38.1546 32.2481 38.0939 33.7843L40.0923 33.8633C40.1507 32.386 40.2744 30.9147 40.4627 29.4567L38.4792 29.2005ZM38.0936 33.7945C38.0708 34.5693 38.2659 35.2083 38.7183 35.7079C39.1168 36.1478 39.6476 36.3881 39.9944 36.5496L40.8388 34.7366C40.432 34.5471 40.2841 34.4574 40.2008 34.3653C40.1713 34.3328 40.0814 34.2376 40.0927 33.8531L38.0936 33.7945ZM39.9942 36.5495C40.5095 36.7896 41.6939 37.2325 42.8284 37.2912C43.3915 37.3203 44.0809 37.2631 44.6719 36.9038C45.3306 36.5033 45.7072 35.8273 45.7586 34.9765L43.7622 34.856C43.7449 35.1425 43.6585 35.1793 43.6328 35.1949C43.5393 35.2517 43.3229 35.314 42.9316 35.2938C42.1573 35.2538 41.2384 34.9228 40.839 34.7367L39.9942 36.5495ZM45.7586 34.9764C45.8087 34.1443 45.3857 33.4566 45.0172 33.0095C44.6319 32.5419 44.1732 32.1761 43.8722 31.9586L42.701 33.5798C42.9369 33.7503 43.2426 34.0009 43.4738 34.2814C43.7217 34.5823 43.7671 34.7741 43.7622 34.8561L45.7586 34.9764ZM43.8715 31.9581C43.9709 32.0298 44.0051 32.1065 44.0154 32.1365L42.1218 32.7802C42.2217 33.0743 42.4091 33.3693 42.7017 33.5803L43.8715 31.9581ZM44.0154 32.1365C44.0214 32.1544 44.0237 32.1686 44.0244 32.179C44.0252 32.1895 44.0248 32.2006 44.0225 32.2132L42.0535 31.8626C41.9996 32.1652 42.0211 32.4841 42.1218 32.7802L44.0154 32.1365ZM44.0231 32.2101C44.106 31.7359 44.2476 30.9938 44.4299 30.2732C44.6222 29.5135 44.8281 28.9115 45.002 28.6285L43.298 27.5815C42.9458 28.1547 42.6808 29.0329 42.4911 29.7825C42.2915 30.5711 42.1401 31.3674 42.053 31.8657L44.0231 32.2101ZM45.0183 28.6011C45.3197 28.0734 45.6544 27.5852 46.0174 27.1413L44.4691 25.8752C44.0327 26.4089 43.6357 26.9894 43.2817 27.609L45.0183 28.6011ZM44.2432 26.5119C44.2479 27.7948 44.6881 29.5244 45.1508 31.0175C45.6241 32.5451 46.1637 33.956 46.4392 34.6513L48.2986 33.9148C48.0323 33.2425 47.5132 31.8844 47.0612 30.4256C46.5985 28.9324 46.2467 27.4583 46.2432 26.5046L44.2432 26.5119ZM46.4379 34.6482C46.5356 34.8971 46.679 35.1349 46.8713 35.3377L48.3224 33.9613C48.3252 33.9643 48.3134 33.9525 48.2998 33.9179L46.4379 34.6482ZM46.8713 35.3377C47.0643 35.5411 47.3067 35.7089 47.5911 35.8075L48.2464 33.9179C48.2958 33.9351 48.3189 33.9576 48.3224 33.9613L46.8713 35.3377ZM47.5922 35.8079C48.1203 35.9904 49.1748 36.3392 49.9794 36.4947L50.359 34.5311C49.7102 34.4057 48.7781 34.1017 48.2453 33.9176L47.5922 35.8079ZM49.981 36.495C50.4348 36.582 51.0272 36.6111 51.6176 36.475C52.2163 36.337 52.8821 36.0093 53.3238 35.3286L51.6461 34.2399C51.5655 34.3641 51.4224 34.4676 51.1684 34.5261C50.906 34.5866 50.6017 34.5776 50.3574 34.5307L49.981 36.495ZM53.3237 35.3288C53.845 34.5258 53.7697 33.6538 53.5181 32.9946C53.2728 32.3518 52.8241 31.794 52.3582 31.4511L51.1726 33.0618C51.3361 33.1821 51.544 33.431 51.6495 33.7076C51.7488 33.9679 51.7186 34.1282 51.6462 34.2398L53.3237 35.3288ZM52.3579 31.4509C52.2045 31.338 52.0537 31.2419 51.927 31.1623C51.7918 31.0774 51.6913 31.0155 51.5916 30.9473C51.4079 30.8215 51.2867 30.7127 51.188 30.5692L49.5401 31.7025C49.8284 32.1217 50.1639 32.3937 50.462 32.5978C50.6033 32.6945 50.7501 32.7849 50.863 32.8558C50.9843 32.932 51.0823 32.9954 51.1728 33.0619L52.3579 31.4509ZM51.2213 30.621C50.8862 30.0631 50.6699 29.3672 50.618 28.6166L48.6227 28.7546C48.6945 29.7918 48.9948 30.7983 49.5068 31.6507L51.2213 30.621ZM50.6139 28.5718C50.5641 28.1373 50.5375 27.6984 50.5343 27.2586L48.5343 27.2731C48.5381 27.7838 48.5689 28.2938 48.6268 28.7994L50.6139 28.5718ZM50.5276 27.1503C50.4902 26.8288 50.5236 26.5035 50.6178 26.2171L48.7181 25.5919C48.5303 26.1623 48.4711 26.7804 48.541 27.3814L50.5276 27.1503ZM50.5378 26.3978C50.6952 26.1203 50.8829 25.9076 51.0775 25.7596L49.8668 24.1677C49.4335 24.4972 49.0739 24.9248 48.7981 25.4112L50.5378 26.3978ZM51.1646 25.6851C51.6698 25.2002 52.153 24.7773 52.6385 24.4887C53.1165 24.2045 53.5276 24.0921 53.9086 24.1304L54.1087 22.1404C53.1598 22.045 52.317 22.353 51.6164 22.7696C50.9232 23.1817 50.3032 23.7398 49.7797 24.2421L51.1646 25.6851ZM53.9094 24.1305C54.2239 24.1618 54.5403 24.3742 55.0559 24.9196C55.2688 25.1449 55.5802 25.4975 55.8519 25.7693C56.1452 26.0627 56.499 26.3762 56.9254 26.6136L57.8983 24.8662C57.7057 24.759 57.5034 24.5925 57.2662 24.3552C57.0073 24.0962 56.8135 23.8676 56.5093 23.5457C55.9905 22.9969 55.2243 22.2517 54.1079 22.1403L53.9094 24.1305ZM56.9252 26.6136C58.4917 27.4861 60.1861 27.0684 61.3552 26.7677L60.8571 24.8308C59.6024 25.1535 58.6791 25.3012 57.8985 24.8663L56.9252 26.6136ZM60.3457 26.4487C61.3603 27.6367 62.6582 28.4457 64.0935 28.7109L64.4569 26.7442C63.5352 26.5739 62.6275 26.0408 61.8666 25.1498L60.3457 26.4487ZM64.0935 28.7109C65.5348 28.9773 66.9899 28.6714 68.2613 27.8683L67.1932 26.1774C66.3201 26.7289 65.3726 26.9135 64.4569 26.7442L64.0935 28.7109ZM68.3588 27.7981C68.5807 27.6174 68.713 27.3831 68.7793 27.1621L66.8639 26.5868C66.8933 26.4887 66.9594 26.3585 67.0956 26.2475L68.3588 27.7981ZM68.7793 27.1621C68.8463 26.9392 68.8553 26.7031 68.8091 26.4793L66.8504 26.8838C66.8305 26.7875 66.8339 26.6867 66.8639 26.5868L68.7793 27.1621ZM68.8091 26.4793C68.7632 26.2571 68.6567 26.0206 68.4666 25.8244L67.0304 27.2164C66.9195 27.1019 66.87 26.9785 66.8504 26.8838L68.8091 26.4793ZM68.4666 25.8244C68.2722 25.6238 67.9877 25.4675 67.6453 25.4554L67.5745 27.4541C67.3329 27.4456 67.1456 27.3352 67.0304 27.2164L68.4666 25.8244ZM67.6142 25.4547C67.4992 25.4543 67.3457 25.4075 67.1816 25.2491L65.7924 26.6879C66.2792 27.1579 66.9123 27.4518 67.6057 27.4547L67.6142 25.4547ZM67.1816 25.2491C67.0127 25.086 66.8556 24.8222 66.7719 24.4736L64.8271 24.94C64.986 25.6025 65.3104 26.2225 65.7924 26.6879L67.1816 25.2491ZM65.1704 25.4841C65.6469 25.8697 66.1862 26.0047 66.5686 26.0833C67.022 26.1764 67.2303 26.1954 67.4622 26.283L68.1691 24.4121C67.7389 24.2496 67.2199 24.1753 66.9711 24.1242C66.6513 24.0585 66.5136 23.9982 66.4286 23.9295L65.1704 25.4841ZM67.6212 26.3285C67.6 26.3243 67.5865 26.3177 67.5809 26.3145C67.5756 26.3115 67.5794 26.3126 67.5894 26.3232L69.042 24.9484C68.7736 24.6648 68.4215 24.4482 68.0102 24.3666L67.6212 26.3285ZM67.5894 26.3232C67.6112 26.3462 67.6494 26.4007 67.6767 26.4945L69.5971 25.936C69.4923 25.5758 69.3088 25.2303 69.042 24.9484L67.5894 26.3232ZM67.659 26.4245C67.6649 26.4522 67.6706 26.49 67.6779 26.5581C67.6834 26.6096 67.6939 26.7236 67.7073 26.8197C67.7374 27.0356 67.8043 27.3657 68.036 27.6893L69.6621 26.5248C69.7051 26.5849 69.6999 26.6281 69.6881 26.5435C69.6806 26.4893 69.6777 26.4496 69.6665 26.3453C69.6571 26.2575 69.6428 26.1373 69.6148 26.0061L67.659 26.4245ZM68.1145 27.7856C68.4153 28.1112 68.8412 28.3438 69.3363 28.3574L69.3914 26.3581C69.5101 26.3614 69.5732 26.4173 69.5836 26.4285L68.1145 27.7856ZM69.3363 28.3574C69.8331 28.371 70.273 28.1608 70.5909 27.8452L69.1816 26.4261C69.1992 26.4085 69.2711 26.3548 69.3914 26.3581L69.3363 28.3574ZM70.5153 27.913C71.2218 27.3412 71.5082 26.4816 71.5978 25.7366C71.6894 24.9741 71.598 24.1687 71.39 23.4994L69.4801 24.0931C69.6104 24.5122 69.6678 25.0341 69.6121 25.4979C69.5542 25.9792 69.397 26.2451 69.2572 26.3583L70.5153 27.913ZM71.3899 23.4992C71.2336 22.9968 70.9911 22.5047 70.7679 22.0697C70.5319 21.6097 70.3162 21.2103 70.1377 20.7967C69.785 19.9797 69.7006 19.3762 69.9672 18.8048L68.1546 17.9593C67.5241 19.3111 67.8708 20.5915 68.3014 21.5893C68.5145 22.083 68.7786 22.5737 68.9884 22.9827C69.2111 23.4166 69.3804 23.7725 69.4802 24.0933L71.3899 23.4992ZM69.98 18.776C70.0566 18.5973 70.0916 18.4089 70.091 18.2265L68.091 18.2333C68.0908 18.1575 68.105 18.0739 68.1418 17.9881L69.98 18.776ZM70.091 18.2265C70.0904 18.0442 70.0541 17.8557 69.976 17.6772L68.1438 18.4791C68.1061 18.3929 68.0913 18.3091 68.091 18.2333L70.091 18.2265ZM69.976 17.6772C69.8981 17.4992 69.7726 17.3186 69.5877 17.1755L68.3636 18.7571C68.2487 18.6682 68.1812 18.5646 68.1438 18.4791L69.976 17.6772ZM69.5877 17.1755C69.3994 17.0298 69.1561 16.9299 68.8821 16.9239L68.8385 18.9234C68.6457 18.9192 68.4819 18.8487 68.3636 18.7571L69.5877 17.1755ZM68.8788 16.9238C68.2071 16.9113 67.5363 16.8352 66.8713 16.6957L66.4606 18.6531C67.2474 18.8182 68.0433 18.9087 68.8417 18.9235L68.8788 16.9238ZM66.7963 16.6829C66.3344 16.6222 65.8732 16.4626 65.4303 16.2008L64.4127 17.9226C65.0747 18.3138 65.7917 18.568 66.5356 18.6658L66.7963 16.6829ZM65.5011 16.2468C65.4687 16.2237 65.3675 16.1181 65.3463 15.822C65.3259 15.535 65.3973 15.1988 65.547 14.9268L63.7948 13.9625C63.4613 14.5685 63.3032 15.2885 63.3514 15.9643C63.399 16.631 63.6647 17.3949 64.3419 17.8766L65.5011 16.2468ZM65.5468 14.9272C65.7896 14.4865 66.2206 14.195 66.8355 13.8066L65.7673 12.1157C65.2247 12.4585 64.3255 12.9992 63.795 13.9622L65.5468 14.9272ZM66.8328 13.8083C68.9427 12.4847 71.2744 12.0281 73.5459 12.4604L73.9198 10.4957C71.1223 9.96322 68.2807 10.539 65.77 12.114L66.8328 13.8083ZM73.4749 12.4442C73.8615 12.5475 74.2412 12.4437 74.5167 12.2273L73.2817 10.6542C73.4573 10.5163 73.7183 10.4391 73.9908 10.5119L73.4749 12.4442ZM74.5167 12.2273C74.7782 12.022 74.9197 11.743 74.9778 11.4887L73.028 11.0434C73.0526 10.9354 73.1201 10.7811 73.2817 10.6542L74.5167 12.2273ZM74.9778 11.4887C75.0365 11.2315 75.0219 10.9553 74.928 10.7002L73.051 11.3906C73.0077 11.2731 73.0026 11.1543 73.028 11.0434L74.9778 11.4887ZM74.928 10.7002C74.8353 10.448 74.6467 10.1749 74.3312 10.0091L73.4011 11.7796C73.1937 11.6707 73.0931 11.5053 73.051 11.3906L74.928 10.7002Z" fill="#7BB29E" mask="url(#path-1-inside-1)"/>
</g>
<defs>
<clipPath id="clip0">
<rect width="74" height="37" fill="white"/>
</clipPath>
</defs>
</svg>
