<svg width="154" height="77" viewBox="0 0 154 77" fill="none" xmlns="http://www.w3.org/2000/svg">
<g clip-path="url(#clip0)">
<path d="M146.28 21.7393L146.268 21.7399C143.309 21.8786 140.359 22.2335 137.43 22.8031L137.428 22.8035C135.939 23.086 134.457 23.4194 132.982 23.8039L132.856 23.32L132.982 23.8039C132.625 23.8969 132.272 24.0156 131.903 24.14L131.884 24.1464C131.527 24.267 131.154 24.393 130.777 24.4913C130.005 24.6929 129.168 24.7924 128.281 24.498C126.811 24.0136 126.046 22.7675 125.563 21.3775C125.232 20.4229 125.008 19.3134 124.79 18.2365C124.695 17.7678 124.602 17.3053 124.501 16.8644C124.501 16.8642 124.501 16.8641 124.501 16.8639L124.989 16.7528C124.595 15.0341 124.475 13.274 124.358 11.5487C124.119 8.04772 123.89 4.68977 121.407 2.11131L146.28 21.7393ZM146.28 21.7393L146.292 21.7382C148.731 21.5068 151.183 21.9732 153.482 23.1123M146.28 21.7393L153.498 23.3887M104.405 73.9054C105.858 74.1838 108.137 74.0641 109.224 72.3891C110.46 70.4859 109.037 68.0926 107.727 67.1285M104.405 73.9054L104.5 73.4145C104.5 73.4145 104.5 73.4145 104.499 73.4145M104.405 73.9054L104.499 73.4144C104.499 73.4144 104.499 73.4144 104.499 73.4145M104.405 73.9054C102.893 73.6131 100.825 72.9338 99.7215 72.5524M104.499 73.4145C105.173 73.5435 106.034 73.5781 106.839 73.3926C107.641 73.2079 108.351 72.8153 108.805 72.1169L108.805 72.1169C109.31 71.3381 109.29 70.4419 108.963 69.5849C108.633 68.7197 108.01 67.9576 107.43 67.5311M104.499 73.4145C103.026 73.1296 100.99 72.4616 99.8848 72.0798M107.43 67.5311C107.43 67.5312 107.43 67.5312 107.43 67.5312L107.727 67.1285M107.43 67.5311L107.727 67.1285M107.43 67.5311C107.192 67.356 106.946 67.1983 106.69 67.037C106.65 67.0119 106.61 66.9867 106.569 66.9613C106.353 66.8258 106.127 66.6846 105.907 66.5341C105.377 66.1713 104.848 65.7343 104.398 65.0798L104.39 65.0671L104.382 65.0539C103.458 63.5158 102.9 61.671 102.765 59.7431M107.727 67.1285C107.432 66.9119 107.131 66.7234 106.832 66.5363C106.1 66.0779 105.382 65.6281 104.81 64.7965C103.929 63.329 103.391 61.5576 103.263 59.6973M102.765 59.7431C102.765 59.7468 102.765 59.7505 102.766 59.7542L103.263 59.6973M102.765 59.7431C102.652 58.7596 102.592 57.7672 102.584 56.7731M102.765 59.7431C102.764 59.7393 102.764 59.7356 102.764 59.7318L103.263 59.6973M103.263 59.6973C103.151 58.7191 103.091 57.7318 103.084 56.7427M112.395 48.1469C114.164 48.3233 115.422 49.6968 116.691 51.0836C117.559 52.0311 118.432 52.9848 119.477 53.5672C121.92 54.9276 124.643 54.3392 127.166 53.6906C129.013 55.8539 131.308 57.2504 133.761 57.7036C136.213 58.1568 138.713 57.6464 140.945 56.2369M112.395 48.1469L112.445 47.6494M112.395 48.1469L112.445 47.6494C112.445 47.6494 112.445 47.6494 112.445 47.6494M112.395 48.1469C109.627 47.8685 107.176 49.897 105.035 51.9515M112.445 47.6494C114.134 47.818 115.373 48.9476 116.45 50.0869C116.665 50.3142 116.87 50.5386 117.073 50.7599C117.399 51.1163 117.718 51.4645 118.056 51.8032C118.594 52.3414 119.135 52.8042 119.721 53.1303L119.721 53.1304C121.966 54.3813 124.498 53.8605 127.041 53.2063L127.343 53.1286L127.546 53.3659C129.33 55.4549 131.527 56.7824 133.852 57.2119C136.158 57.6381 138.515 57.1669 140.636 55.84M112.445 47.6494C110.919 47.4959 109.507 47.9824 108.225 48.7446C106.954 49.4998 105.779 50.5459 104.709 51.5713M140.636 55.84C140.632 55.8467 140.629 55.8493 140.629 55.8493L140.629 55.8493L140.945 56.2369M140.636 55.84C140.65 55.8315 140.664 55.8228 140.678 55.8142L140.945 56.2369M140.636 55.84C140.637 55.8386 140.639 55.8369 140.64 55.835C140.647 55.8238 140.655 55.807 140.662 55.7842C140.676 55.737 140.679 55.6805 140.668 55.6278L141.158 55.5267M140.945 56.2369C141.034 56.1643 141.103 56.056 141.141 55.9281C141.179 55.8002 141.185 55.6594 141.158 55.5267M141.158 55.5267L140.668 55.6278C140.661 55.5924 140.65 55.5683 140.641 55.554M141.158 55.5267C141.131 55.394 141.071 55.2764 140.989 55.1913C140.906 55.1063 140.805 55.0584 140.7 55.0547M140.641 55.554L153.789 23.8094C153.685 23.891 153.562 23.9187 153.443 23.887C148.168 22.8831 142.785 23.9574 137.977 26.9734L137.945 26.9939C136.748 27.7499 135.381 28.6132 134.584 30.0608C133.578 31.8879 133.629 34.4566 135.106 35.507C136.255 36.1865 137.481 36.617 138.736 36.7821M140.641 55.554C139.676 55.5341 138.759 55.12 138.016 54.4025C137.261 53.6729 136.718 52.6643 136.447 51.5336L136.103 50.1025L137.247 51.0284C137.734 51.422 138.338 51.6065 139.053 51.7534C139.213 51.7864 139.382 51.8177 139.557 51.8501C140.109 51.9524 140.714 52.0646 141.268 52.2689M140.641 55.554C140.636 55.5466 140.632 55.5418 140.63 55.5393C140.629 55.538 140.628 55.538 140.629 55.5388C140.629 55.5389 140.63 55.539 140.63 55.5392C140.631 55.5403 140.634 55.5422 140.639 55.5444C140.649 55.5491 140.664 55.5537 140.683 55.5544L140.685 55.4856L140.7 55.0547M140.641 55.554C140.66 55.5544 140.679 55.5546 140.698 55.5547L140.699 55.4725L140.7 55.0547M140.641 55.554L153.498 23.3887M140.7 55.0547C139.859 55.0511 139.041 54.6967 138.364 54.0428C137.853 53.5501 137.443 52.9067 137.164 52.1695C136.976 52.067 136.793 51.9472 136.618 51.8057L136.933 51.417L137.419 51.3004C137.461 51.4768 137.511 51.6484 137.568 51.8148C138.162 52.1 138.829 52.2239 139.499 52.3483C140.054 52.4514 140.61 52.5548 141.129 52.7505M141.129 52.7505C141.51 52.8261 141.869 53.0331 142.169 53.3504C142.47 53.6677 142.7 54.0839 142.838 54.5564C142.883 54.7678 142.904 54.9776 142.925 55.1832C142.969 55.6208 143.012 56.0391 143.279 56.4123M141.129 52.7505L141.305 52.2828C141.293 52.2781 141.28 52.2735 141.268 52.2689M141.129 52.7505L141.226 52.2601C141.24 52.2629 141.254 52.2658 141.268 52.2689M143.279 56.4123C143.581 56.7394 143.959 56.9232 144.351 56.934C144.742 56.9447 145.125 56.7818 145.438 56.4717C147.199 55.0463 147.284 51.7873 146.58 49.5221C146.262 48.5016 145.715 47.4444 145.151 46.3571C143.824 43.7944 142.409 41.0648 143.72 38.2547M143.279 56.4123L143.686 56.1212C143.68 56.1129 143.674 56.1046 143.668 56.0962M143.279 56.4123L143.646 56.073C143.654 56.0809 143.661 56.0886 143.668 56.0962M143.72 38.2547C143.762 38.1581 143.783 38.049 143.783 37.9381C143.782 37.8273 143.76 37.7184 143.718 37.6223C143.676 37.5261 143.615 37.4459 143.543 37.3896C143.47 37.3332 143.387 37.3026 143.303 37.3008M143.72 38.2547L143.267 38.0434C143.265 38.0466 143.264 38.0498 143.262 38.053M143.72 38.2547L143.261 38.0578C143.261 38.0562 143.262 38.0546 143.262 38.053M143.303 37.3008C141.773 37.2724 140.247 37.099 138.736 36.7821M143.303 37.3008L143.294 37.7113L143.292 37.8007C143.277 37.8003 143.264 37.7974 143.254 37.7937C143.244 37.79 143.238 37.7861 143.237 37.785L143.236 37.7848C143.236 37.7848 143.241 37.7891 143.248 37.7998M143.303 37.3008L143.295 37.7095L143.293 37.8007C143.278 37.8004 143.263 37.8001 143.248 37.7998M138.736 36.7821L138.633 37.2714C138.639 37.2727 138.646 37.274 138.652 37.2753M138.736 36.7821L138.671 37.2778C138.664 37.277 138.658 37.2761 138.652 37.2753M138.652 37.2753C137.333 37.0992 136.05 36.6459 134.851 35.9375L134.833 35.9267L134.816 35.9145C133.916 35.2746 133.493 34.2053 133.415 33.1108C133.337 32.0117 133.597 30.8168 134.146 29.8197L134.146 29.8195C135.006 28.2582 136.468 27.3353 137.643 26.5931L137.71 26.5507L137.712 26.5499C142.608 23.4781 148.105 22.372 153.498 23.3887M138.652 37.2753C140.172 37.5931 141.708 37.7684 143.248 37.7998M153.498 23.3887C153.496 23.3924 153.495 23.3959 153.493 23.399C153.485 23.4117 153.48 23.4164 153.48 23.4164L153.48 23.4161L153.522 23.4696L153.48 23.4161C153.481 23.4154 153.483 23.4138 153.487 23.412C153.492 23.4091 153.5 23.4054 153.512 23.4028C153.52 23.4011 153.528 23.4001 153.535 23.3999C153.548 23.3995 153.56 23.4009 153.572 23.4039L153.554 23.3992L153.536 23.3958C153.524 23.3934 153.511 23.391 153.498 23.3887ZM153.498 23.3887C153.505 23.375 153.512 23.3569 153.517 23.3345C153.531 23.2743 153.526 23.2093 153.508 23.1593C153.499 23.1356 153.489 23.1212 153.484 23.1142C153.483 23.1135 153.483 23.1129 153.482 23.1123M143.248 37.7998C143.251 37.8055 143.256 37.813 143.26 37.8227C143.273 37.8527 143.283 37.8935 143.283 37.9398C143.283 37.9837 143.275 38.023 143.262 38.053M143.262 38.053C142.244 40.2458 142.758 42.372 143.591 44.3027C143.928 45.0838 144.328 45.855 144.711 46.5937C144.8 46.7668 144.889 46.9381 144.976 47.1073C145.44 48.0113 145.85 48.8596 146.102 49.6706C146.435 50.7406 146.581 52.0508 146.437 53.2522C146.291 54.4623 145.862 55.485 145.123 56.083L145.103 56.099L145.085 56.1169C144.857 56.3438 144.602 56.4407 144.364 56.4341C144.134 56.4278 143.887 56.323 143.668 56.0962M143.668 56.0962C143.553 55.9237 143.497 55.7247 143.459 55.4577C143.445 55.3546 143.435 55.2537 143.423 55.1415C143.419 55.095 143.414 55.0465 143.408 54.9952C143.39 54.8281 143.367 54.643 143.327 54.4518L143.323 54.4341L143.318 54.4167C143.161 53.8777 142.894 53.3887 142.532 53.0067C142.18 52.6347 141.747 52.3735 141.268 52.2689M153.482 23.1123C153.487 23.1149 153.492 23.1175 153.498 23.1201L153.72 22.6723L153.488 23.115C153.479 23.1104 153.478 23.1078 153.482 23.1123ZM104.709 51.5713C104.717 51.5654 104.725 51.5595 104.733 51.5536L105.035 51.9515M104.709 51.5713C104.703 51.5778 104.696 51.5843 104.689 51.5908L105.035 51.9515M104.709 51.5713C104.006 52.1116 103.402 52.8251 102.927 53.6629L102.902 53.7061L102.887 53.7533C102.573 54.7073 102.469 55.752 102.584 56.7731M105.035 51.9515C104.382 52.4485 103.813 53.1147 103.362 53.9096C103.068 54.8011 102.972 55.7828 103.084 56.7427M102.584 56.7731C102.584 56.7642 102.584 56.7552 102.584 56.7463L103.084 56.7427M102.584 56.7731C102.585 56.7822 102.586 56.7913 102.587 56.8004L103.084 56.7427M99.8848 72.0798C99.885 72.0799 99.8851 72.08 99.8853 72.08L99.7215 72.5524M99.8848 72.0798C99.7239 72.0239 99.5622 71.9204 99.4144 71.7645C99.2661 71.6081 99.1373 71.4049 99.0427 71.1635L99.0421 71.162C98.4807 69.7447 97.3841 66.8765 96.4266 63.7863C95.4637 60.6789 94.6618 57.4092 94.6536 55.1642L94.6485 53.7709L93.7665 54.8495C92.9179 55.8873 92.1422 57.0201 91.4481 58.2343M99.8848 72.0798L99.7215 72.5524M99.7215 72.5524C99.477 72.4676 99.2488 72.3164 99.0516 72.1086C98.8545 71.9008 98.6929 71.641 98.5772 71.3461C97.5092 68.6497 94.5095 60.7173 94.1825 55.9322C94.3004 55.7803 94.4198 55.6304 94.5406 55.4825L94.1536 55.166L93.6536 55.1679C93.6543 55.3642 93.6606 55.5671 93.672 55.7759C93.0259 56.623 92.4265 57.5296 91.8784 58.4891M91.4481 58.2343C91.4496 58.232 91.451 58.2296 91.4524 58.2273L91.8784 58.4891M91.4481 58.2343C90.858 59.1984 90.3547 60.8038 89.9588 62.3679C89.5572 63.9548 89.25 65.5684 89.072 66.5865M91.4481 58.2343C91.4468 58.2365 91.4455 58.2388 91.4443 58.2411L91.8784 58.4891M91.8784 58.4891C90.7836 60.2708 89.9182 64.6499 89.5643 66.6738M89.072 66.5865C89.072 66.5863 89.0721 66.5862 89.0721 66.5861L89.5643 66.6738M89.072 66.5865C89.0055 66.9603 89.0332 67.353 89.1545 67.7096C89.2754 68.0653 89.49 68.3853 89.7888 68.6009M89.072 66.5865L89.7888 68.6009M89.5643 66.6738C89.5122 66.9667 89.5345 67.274 89.6279 67.5487C89.7213 67.8235 89.8806 68.0507 90.0816 68.1956L89.5643 66.6738ZM89.7888 68.6009C90.3313 68.9928 91.0884 69.6055 91.6913 70.3371C92.3026 71.0788 92.6956 71.8701 92.6496 72.6336C92.5866 73.676 92.1774 74.2579 91.6235 74.5946C91.0357 74.952 90.2114 75.0776 89.2613 75.0285C87.365 74.9305 85.2429 74.1532 84.3201 73.7232L84.32 73.7231C83.5209 73.351 82.9104 73.0453 82.4878 72.5786C82.0924 72.142 81.8223 71.5147 81.8544 70.4074C81.9778 67.2874 82.239 64.1795 82.6368 61.0995L82.6374 61.0942L82.6412 61.0626C82.9206 58.704 83.2047 56.3058 83.6495 53.9919L83.8356 53.0239L82.9446 53.4456C80.3231 54.6862 77.5791 55.4049 74.8027 55.5811C73.5554 55.6598 72.3127 55.4255 71.0181 55.1559C70.9246 55.1365 70.8307 55.1168 70.7366 55.0971C69.5493 54.8482 68.3113 54.5887 67.0744 54.5946M89.7888 68.6009L90.1077 11.064C80.2518 6.87737 69.6721 6.66246 59.7242 10.445L59.7238 10.4452C54.7341 12.3376 50.007 15.2891 45.7312 19.1887C42.1393 22.4868 39.4449 26.5074 36.7556 30.5202C36.2415 31.2874 35.7275 32.0543 35.2075 32.8158C31.9859 37.5337 28.5406 42.0267 23.412 44.8292L23.4119 44.8293C20.5906 46.3695 16.0698 46.7846 11.6975 46.3118C7.39012 45.846 3.06914 44.5014 0.512652 42.3563C0.512355 42.3574 0.512055 42.3584 0.511764 42.3595L0.0291467 42.2307L0.511763 42.3595C0.50032 42.4024 0.49791 42.4517 0.505919 42.4985M67.0744 54.5946C67.0744 54.5946 67.0745 54.5946 67.0746 54.5946L67.0767 55.0946L67.0744 54.5946ZM67.0744 54.5946C65.7451 54.6004 64.4977 55.6067 63.6624 56.8846C62.8128 58.1843 62.2926 59.9004 62.5046 61.5609L62.5059 61.5713L62.5077 61.5817C62.7628 63.0759 63.3321 64.4594 64.1627 65.5737M64.1627 65.5737C64.2843 65.7457 64.4161 65.9062 64.5396 66.0542C64.5602 66.0789 64.5806 66.1031 64.6006 66.1271C64.7057 66.2526 64.8034 66.3693 64.8969 66.4911C65.1154 66.776 65.2811 67.0525 65.3639 67.3834L65.8489 67.2621M64.1627 65.5737C64.164 65.5755 64.1654 65.5773 64.1667 65.5791L64.5674 65.2799M64.1627 65.5737C64.1613 65.5718 64.16 65.5699 64.1587 65.568L64.5674 65.2799M65.8489 67.2621L65.3639 67.3834C65.4739 67.8233 65.4502 68.1478 65.3639 68.3903C65.2781 68.6314 65.1153 68.8347 64.8721 69.0077C64.3652 69.3686 63.5576 69.5625 62.6423 69.6251L61.5719 69.6984L62.3164 70.4709C62.384 70.541 62.4543 70.6657 62.5148 70.8735C62.5744 71.0782 62.6139 71.3254 62.6461 71.6078C62.6652 71.7751 62.6782 71.9161 62.6916 72.0613C62.7035 72.191 62.7158 72.3241 62.733 72.4825C62.7647 72.7742 62.8072 73.0797 62.8845 73.3536L62.8846 73.3537C63.1977 74.4622 63.0394 75.1339 62.7294 75.5528C62.4059 75.99 61.8304 76.2721 61.0689 76.4076C60.3153 76.5417 59.4507 76.5185 58.6546 76.4112C57.8568 76.3038 57.1661 76.1173 56.7649 75.9496M65.8489 67.2621C66.3098 69.1049 64.9077 69.8406 63.2539 70.0657L63.0006 61.4976C63.2443 62.925 63.7869 64.2349 64.5674 65.2799M65.8489 67.2621C65.6981 66.6588 65.3369 66.2275 64.9825 65.8043C64.8381 65.6319 64.6948 65.4608 64.5674 65.2799M56.7649 75.9496C55.8367 75.5611 54.931 75.3384 54.1202 75.1586C53.9738 75.1261 53.8317 75.0953 53.6938 75.0653C53.0507 74.9257 52.4974 74.8055 52.0182 74.6332C51.4499 74.429 51.0573 74.1742 50.8032 73.7928C50.547 73.4081 50.3834 72.8217 50.4294 71.8571L50.4294 71.8569C50.4538 71.341 50.7275 69.9226 51.1326 68.0267C51.4092 66.7319 51.7403 65.2444 52.0785 63.7245C52.2294 63.0464 52.3817 62.362 52.5312 61.6853L52.5335 61.6752L52.5353 61.6649C53.1402 58.2654 52.9572 54.7064 52.008 51.4408L52.0058 51.4333L52.0034 51.4259C51.6533 50.3483 51.0178 49.4348 50.1786 48.8679C49.3333 48.2969 48.3422 48.1215 47.3887 48.3964M56.7649 75.9496C56.765 75.9496 56.7651 75.9497 56.7651 75.9497L56.5721 76.4109M56.7649 75.9496L56.5721 76.4109M47.3887 48.3964C45.4176 48.9543 43.5011 49.7906 41.6729 50.8892L41.6729 50.8891L41.6681 50.8921C39.1639 52.4352 36.814 53.6163 34.2429 54.9085C33.0421 55.512 31.7931 56.1397 30.4577 56.8399L30.4576 56.8399C29.7233 57.225 28.6108 57.5566 27.2679 57.8242C25.9342 58.0899 24.408 58.2859 22.8682 58.4146C19.778 58.6727 16.6885 58.6553 15.0348 58.4067L15.0348 58.4067C8.4839 57.4225 2.37565 51.304 0.505919 42.4985M47.3887 48.3964C47.3882 48.3965 47.3877 48.3967 47.3873 48.3968L47.526 48.8772M47.3887 48.3964C47.3891 48.3963 47.3895 48.3962 47.3898 48.3961L47.526 48.8772M0.505919 42.4985C0.505398 42.496 0.504881 42.4936 0.50436 42.4911L0.0152344 42.5949L0.50675 42.5031C0.506461 42.5016 0.506185 42.5 0.505919 42.4985ZM47.526 48.8772C48.3287 48.6454 49.168 48.7887 49.8987 49.2822C50.6295 49.7758 51.2057 50.5887 51.5279 51.5804M47.526 48.8772C45.5989 49.4225 43.7227 50.2408 41.9304 51.3178C39.4075 52.8724 37.0273 54.0687 34.4454 55.3665C33.2484 55.9682 32.0079 56.5917 30.6898 57.2827C27.4961 58.9577 18.3799 59.4152 14.9605 58.9011L51.5279 51.5804M51.5279 51.5804C52.4553 54.771 52.6347 58.2521 52.043 61.5774C51.8939 62.2523 51.7417 62.9358 51.591 63.6134C50.7633 67.3329 49.9754 70.8733 49.9299 71.8333C49.7919 74.7308 51.3961 75.0787 53.5994 75.5566C54.5143 75.755 55.5325 75.9758 56.5721 76.4109M51.5279 51.5804L56.5721 76.4109" fill="white" stroke="white"/>
</g>
<defs>
<clipPath id="clip0">
<rect width="154" height="77" fill="white"/>
</clipPath>
</defs>
</svg>
