<svg width="154" height="77" viewBox="0 0 154 77" fill="none" xmlns="http://www.w3.org/2000/svg">
<g clip-path="url(#clip0)">
<mask id="path-1-inside-1" fill="white">
<path d="M153.72 22.6723C151.337 21.488 148.786 20.9993 146.244 21.2404C143.262 21.3803 140.287 21.7381 137.335 22.3123C135.835 22.5968 134.342 22.9328 132.856 23.32C131.349 23.7126 129.955 24.5264 128.438 24.0234C125.941 23.2013 125.678 19.7761 124.989 16.7528C123.797 11.5469 125.113 5.96053 121.407 2.11131C118.206 -1.2136 111.561 -0.505554 109.213 3.48749C106.674 7.80254 105.881 14.3865 108.784 18.7126C105.675 19.2574 103.919 17.9118 101.014 16.3129C97.4485 14.3512 93.988 12.1826 90.3038 10.6041C80.3298 6.36704 69.616 6.14884 59.5464 9.97769C54.4928 11.8944 49.7119 14.8813 45.3931 18.8203C36.727 26.7776 33.2035 38.909 23.1723 44.3905C17.794 47.3266 5.57751 46.0896 0.722903 41.8785C0.639651 41.8194 0.545117 41.7933 0.450772 41.8033C0.356426 41.8133 0.266323 41.859 0.191398 41.9349C0.116473 42.0107 0.0599472 42.1134 0.0286768 42.2306C-0.00259364 42.3477 -0.00726377 42.4743 0.0152344 42.5949C1.91532 51.5562 8.15342 57.8785 14.9605 58.9011C18.3799 59.4152 27.4961 58.9577 30.6898 57.2827C34.8509 55.1011 38.2378 53.5931 41.9304 51.3178C43.7227 50.2408 45.5989 49.4225 47.526 48.8772C48.3287 48.6454 49.168 48.7887 49.8987 49.2822C50.6295 49.7758 51.2057 50.5887 51.5279 51.5804C52.4553 54.771 52.6347 58.2521 52.043 61.5774C51.0749 65.9574 49.9837 70.6984 49.9299 71.8333C49.7346 75.934 53.0288 74.928 56.5721 76.4109C58.3816 77.1672 64.723 78.0228 63.3657 73.2178C63.1039 72.2898 63.2631 70.7327 62.6765 70.1239C64.561 69.995 66.3627 69.3166 65.8489 67.2621C65.6366 66.413 65.0075 65.9045 64.5674 65.2799C63.7869 64.2349 63.2443 62.925 63.0006 61.4976C62.6121 58.4538 64.9113 55.1039 67.0767 55.0946C69.618 55.0825 72.1882 56.2471 74.8342 56.0801C77.6763 55.8998 80.482 55.1642 83.1585 53.8975C82.7077 56.2425 82.4211 58.67 82.1409 61.0354C81.7411 64.1311 81.4786 67.2547 81.3547 70.3903C81.2839 72.803 82.5407 73.4461 84.1089 74.1764C86.0125 75.0635 92.8628 77.3974 93.1487 72.6638C93.2633 70.7615 91.199 69.003 90.0816 68.1956C89.8806 68.0507 89.7213 67.8235 89.6279 67.5487C89.5345 67.274 89.5122 66.9667 89.5643 66.6738C89.9182 64.6499 90.7836 60.2708 91.8784 58.4891C92.5604 57.2954 93.3217 56.1833 94.1536 55.166C94.1705 59.8207 97.4499 68.5 98.5772 71.3461C98.6929 71.641 98.8545 71.9008 99.0516 72.1086C99.2488 72.3164 99.477 72.4676 99.7215 72.5524C100.825 72.9338 102.893 73.6131 104.405 73.9054C105.858 74.1838 108.137 74.0641 109.224 72.3891C110.46 70.4859 109.037 68.0926 107.727 67.1285C106.711 66.3814 105.616 65.9676 104.81 64.7965C103.929 63.329 103.391 61.5576 103.263 59.6973C103.151 58.7191 103.091 57.7318 103.084 56.7427C102.972 55.7828 103.068 54.8011 103.362 53.9096C103.813 53.1147 104.382 52.4485 105.035 51.9515C107.176 49.897 109.627 47.8685 112.395 48.1469C115.373 48.4438 116.901 52.1325 119.477 53.5672C121.92 54.9276 124.643 54.3392 127.166 53.6906C129.013 55.8539 131.308 57.2504 133.761 57.7036C136.213 58.1568 138.713 57.6464 140.945 56.2369C141.034 56.1643 141.103 56.056 141.141 55.9281C141.179 55.8002 141.185 55.6594 141.158 55.5267C141.131 55.394 141.071 55.2764 140.989 55.1913C140.906 55.1063 140.805 55.0584 140.7 55.0547C139.859 55.0511 139.041 54.6967 138.364 54.0428C137.686 53.3888 137.185 52.4692 136.933 51.417C138.101 52.3626 139.751 52.2299 141.129 52.7505C141.51 52.8261 141.869 53.0331 142.169 53.3504C142.47 53.6677 142.7 54.0839 142.838 54.5564C142.979 55.218 142.886 55.8639 143.279 56.4123C143.581 56.7394 143.959 56.9232 144.351 56.934C144.742 56.9447 145.125 56.7818 145.438 56.4717C147.199 55.0463 147.284 51.7873 146.58 49.5221C145.514 46.0961 141.853 42.2571 143.72 38.2547C143.762 38.1581 143.783 38.049 143.783 37.9381C143.782 37.8273 143.76 37.7184 143.718 37.6223C143.676 37.5261 143.615 37.4459 143.543 37.3896C143.47 37.3332 143.387 37.3026 143.303 37.3008C141.773 37.2724 140.247 37.099 138.736 36.7821C137.481 36.617 136.255 36.1865 135.106 35.507C133.629 34.4566 133.578 31.8879 134.584 30.0608C135.389 28.6002 136.773 27.7344 137.977 26.9734C142.785 23.9574 148.168 22.8831 153.443 23.887C153.562 23.9187 153.685 23.891 153.789 23.8094C153.893 23.7278 153.97 23.5981 154.005 23.4459C154.039 23.2936 154.03 23.1298 153.977 22.9867C153.924 22.8435 153.833 22.7314 153.72 22.6723Z"/>
</mask>
<path d="M153.72 22.6723C151.337 21.488 148.786 20.9993 146.244 21.2404C143.262 21.3803 140.287 21.7381 137.335 22.3123C135.835 22.5968 134.342 22.9328 132.856 23.32C131.349 23.7126 129.955 24.5264 128.438 24.0234C125.941 23.2013 125.678 19.7761 124.989 16.7528C123.797 11.5469 125.113 5.96053 121.407 2.11131C118.206 -1.2136 111.561 -0.505554 109.213 3.48749C106.674 7.80254 105.881 14.3865 108.784 18.7126C105.675 19.2574 103.919 17.9118 101.014 16.3129C97.4485 14.3512 93.988 12.1826 90.3038 10.6041C80.3298 6.36704 69.616 6.14884 59.5464 9.97769C54.4928 11.8944 49.7119 14.8813 45.3931 18.8203C36.727 26.7776 33.2035 38.909 23.1723 44.3905C17.794 47.3266 5.57751 46.0896 0.722903 41.8785C0.639651 41.8194 0.545117 41.7933 0.450772 41.8033C0.356426 41.8133 0.266323 41.859 0.191398 41.9349C0.116473 42.0107 0.0599472 42.1134 0.0286768 42.2306C-0.00259364 42.3477 -0.00726377 42.4743 0.0152344 42.5949C1.91532 51.5562 8.15342 57.8785 14.9605 58.9011C18.3799 59.4152 27.4961 58.9577 30.6898 57.2827C34.8509 55.1011 38.2378 53.5931 41.9304 51.3178C43.7227 50.2408 45.5989 49.4225 47.526 48.8772C48.3287 48.6454 49.168 48.7887 49.8987 49.2822C50.6295 49.7758 51.2057 50.5887 51.5279 51.5804C52.4553 54.771 52.6347 58.2521 52.043 61.5774C51.0749 65.9574 49.9837 70.6984 49.9299 71.8333C49.7346 75.934 53.0288 74.928 56.5721 76.4109C58.3816 77.1672 64.723 78.0228 63.3657 73.2178C63.1039 72.2898 63.2631 70.7327 62.6765 70.1239C64.561 69.995 66.3627 69.3166 65.8489 67.2621C65.6366 66.413 65.0075 65.9045 64.5674 65.2799C63.7869 64.2349 63.2443 62.925 63.0006 61.4976C62.6121 58.4538 64.9113 55.1039 67.0767 55.0946C69.618 55.0825 72.1882 56.2471 74.8342 56.0801C77.6763 55.8998 80.482 55.1642 83.1585 53.8975C82.7077 56.2425 82.4211 58.67 82.1409 61.0354C81.7411 64.1311 81.4786 67.2547 81.3547 70.3903C81.2839 72.803 82.5407 73.4461 84.1089 74.1764C86.0125 75.0635 92.8628 77.3974 93.1487 72.6638C93.2633 70.7615 91.199 69.003 90.0816 68.1956C89.8806 68.0507 89.7213 67.8235 89.6279 67.5487C89.5345 67.274 89.5122 66.9667 89.5643 66.6738C89.9182 64.6499 90.7836 60.2708 91.8784 58.4891C92.5604 57.2954 93.3217 56.1833 94.1536 55.166C94.1705 59.8207 97.4499 68.5 98.5772 71.3461C98.6929 71.641 98.8545 71.9008 99.0516 72.1086C99.2488 72.3164 99.477 72.4676 99.7215 72.5524C100.825 72.9338 102.893 73.6131 104.405 73.9054C105.858 74.1838 108.137 74.0641 109.224 72.3891C110.46 70.4859 109.037 68.0926 107.727 67.1285C106.711 66.3814 105.616 65.9676 104.81 64.7965C103.929 63.329 103.391 61.5576 103.263 59.6973C103.151 58.7191 103.091 57.7318 103.084 56.7427C102.972 55.7828 103.068 54.8011 103.362 53.9096C103.813 53.1147 104.382 52.4485 105.035 51.9515C107.176 49.897 109.627 47.8685 112.395 48.1469C115.373 48.4438 116.901 52.1325 119.477 53.5672C121.92 54.9276 124.643 54.3392 127.166 53.6906C129.013 55.8539 131.308 57.2504 133.761 57.7036C136.213 58.1568 138.713 57.6464 140.945 56.2369C141.034 56.1643 141.103 56.056 141.141 55.9281C141.179 55.8002 141.185 55.6594 141.158 55.5267C141.131 55.394 141.071 55.2764 140.989 55.1913C140.906 55.1063 140.805 55.0584 140.7 55.0547C139.859 55.0511 139.041 54.6967 138.364 54.0428C137.686 53.3888 137.185 52.4692 136.933 51.417C138.101 52.3626 139.751 52.2299 141.129 52.7505C141.51 52.8261 141.869 53.0331 142.169 53.3504C142.47 53.6677 142.7 54.0839 142.838 54.5564C142.979 55.218 142.886 55.8639 143.279 56.4123C143.581 56.7394 143.959 56.9232 144.351 56.934C144.742 56.9447 145.125 56.7818 145.438 56.4717C147.199 55.0463 147.284 51.7873 146.58 49.5221C145.514 46.0961 141.853 42.2571 143.72 38.2547C143.762 38.1581 143.783 38.049 143.783 37.9381C143.782 37.8273 143.76 37.7184 143.718 37.6223C143.676 37.5261 143.615 37.4459 143.543 37.3896C143.47 37.3332 143.387 37.3026 143.303 37.3008C141.773 37.2724 140.247 37.099 138.736 36.7821C137.481 36.617 136.255 36.1865 135.106 35.507C133.629 34.4566 133.578 31.8879 134.584 30.0608C135.389 28.6002 136.773 27.7344 137.977 26.9734C142.785 23.9574 148.168 22.8831 153.443 23.887C153.562 23.9187 153.685 23.891 153.789 23.8094C153.893 23.7278 153.97 23.5981 154.005 23.4459C154.039 23.2936 154.03 23.1298 153.977 22.9867C153.924 22.8435 153.833 22.7314 153.72 22.6723Z" fill="white" stroke="white" stroke-width="2" mask="url(#path-1-inside-1)"/>
</g>
<defs>
<clipPath id="clip0">
<rect width="154" height="77" fill="white"/>
</clipPath>
</defs>
</svg>
